<?xml version="1.0" standalone="no"?>
<!DOCTYPE svg PUBLIC "-//W3C//DTD SVG 20010904//EN"
 "http://www.w3.org/TR/2001/REC-SVG-20010904/DTD/svg10.dtd">
<svg version="1.0" xmlns="http://www.w3.org/2000/svg"
 width="700.000000pt" height="700.000000pt" viewBox="0 0 700.000000 700.000000"
 preserveAspectRatio="xMidYMid meet">
<metadata>
Created by potrace 1.14, written by Peter Selinger 2001-2017
</metadata>
<g transform="translate(0.000000,700.000000) scale(0.100000,-0.100000)"
fill="#000000" stroke="none">
<path d="M3279 6501 c-4 -9 -61 -16 -200 -26 -20 -1 -40 -5 -45 -8 -5 -3 -22
-7 -39 -8 -21 -3 -29 0 -27 9 1 8 -2 11 -8 7 -6 -3 -8 -11 -5 -16 4 -5 -1 -10
-9 -10 -9 -1 -19 -2 -23 -3 -11 -3 -96 -20 -108 -22 -5 -1 -14 -3 -20 -4 -5
-2 -14 -4 -20 -5 -5 -1 -17 -4 -25 -7 -36 -12 -159 -48 -180 -53 -10 -2 -107
-39 -202 -77 -54 -22 -102 -36 -108 -33 -6 4 -9 2 -8 -4 2 -5 -42 -32 -97 -59
-55 -27 -125 -64 -155 -82 -30 -18 -61 -33 -67 -33 -7 0 -11 -3 -8 -5 3 -3 -4
-10 -14 -16 -10 -6 -44 -28 -75 -49 -32 -20 -62 -34 -68 -31 -7 4 -8 3 -4 -4
4 -7 -10 -22 -34 -38 -22 -15 -40 -31 -40 -35 0 -5 -7 -9 -15 -9 -8 0 -15 -4
-15 -10 0 -5 -5 -10 -10 -10 -6 0 -21 -10 -34 -22 -12 -13 -37 -34 -56 -48
-34 -26 -298 -286 -336 -331 -11 -14 -44 -55 -72 -93 -29 -37 -52 -64 -53 -59
0 4 -4 -2 -10 -15 -5 -14 -13 -20 -20 -16 -8 4 -9 3 -5 -5 4 -6 -1 -22 -11
-35 -10 -13 -23 -32 -30 -42 -7 -11 -28 -43 -48 -71 -19 -29 -35 -56 -35 -61
0 -5 -10 -20 -22 -34 -13 -14 -24 -29 -25 -34 -1 -5 -20 -42 -43 -83 -22 -41
-43 -86 -47 -99 -3 -13 -11 -26 -18 -28 -6 -3 -12 -11 -12 -18 0 -26 -25 -76
-36 -69 -5 3 -7 1 -3 -5 3 -6 1 -23 -5 -39 -6 -15 -15 -37 -19 -48 -4 -11 -15
-36 -24 -57 -9 -20 -16 -43 -16 -52 0 -9 -4 -16 -10 -16 -5 0 -9 -3 -9 -7 4
-22 -2 -44 -10 -39 -4 3 -6 -6 -3 -21 3 -17 1 -24 -6 -19 -6 4 -8 -2 -5 -14 3
-12 0 -20 -6 -20 -7 0 -10 -4 -7 -9 5 -7 -14 -88 -31 -131 -3 -8 -7 -26 -8
-40 -1 -14 -7 -43 -13 -65 -12 -46 -19 -87 -28 -167 -4 -32 -10 -58 -13 -58
-3 0 -7 -28 -9 -63 -4 -102 -7 -131 -15 -144 -5 -8 -3 -13 3 -13 6 0 8 -5 5
-10 -8 -13 -8 -257 0 -270 3 -5 1 -11 -5 -15 -6 -4 -8 -11 -4 -16 3 -6 8 -34
10 -62 7 -100 15 -170 20 -179 3 -4 -1 -8 -8 -8 -9 0 -10 -2 -2 -8 7 -4 14
-33 17 -65 3 -31 8 -61 11 -66 3 -5 8 -26 10 -47 2 -22 8 -50 14 -64 5 -14 8
-35 7 -47 -1 -13 1 -23 5 -23 4 0 7 -6 7 -12 0 -7 7 -37 16 -65 9 -29 13 -53
10 -53 -3 0 0 -6 6 -13 6 -8 12 -22 14 -33 2 -10 8 -27 12 -38 4 -10 8 -31 9
-46 1 -15 4 -26 9 -23 4 2 8 -1 8 -6 2 -18 5 -24 22 -65 9 -21 14 -42 11 -47
-3 -5 0 -9 7 -9 6 0 9 -8 6 -20 -3 -11 -2 -18 3 -15 11 7 22 -24 13 -37 -3 -6
-2 -8 4 -5 5 3 18 -13 27 -36 29 -67 87 -182 136 -267 8 -14 13 -31 11 -39 -1
-7 2 -11 6 -8 5 3 18 -8 28 -26 33 -59 89 -142 97 -145 4 -2 8 -10 8 -18 0 -8
4 -14 8 -14 4 0 15 -12 24 -27 9 -16 28 -41 42 -57 13 -17 23 -34 20 -38 -3
-5 -1 -7 4 -6 5 2 31 -24 58 -57 27 -33 55 -64 62 -68 7 -5 10 -13 6 -18 -3
-5 -2 -8 3 -7 4 2 28 -19 53 -46 25 -28 60 -63 78 -80 18 -16 54 -49 79 -73
26 -23 50 -43 56 -43 5 0 6 -7 3 -16 -3 -9 -2 -12 5 -9 12 8 51 -24 44 -35 -3
-4 3 -7 13 -6 9 0 16 -5 14 -12 -1 -8 2 -11 6 -8 5 3 23 -8 41 -24 17 -17 36
-30 41 -30 6 0 13 -7 16 -15 4 -8 10 -13 14 -10 4 2 20 -7 34 -20 15 -14 31
-25 36 -25 5 0 13 -7 18 -16 5 -9 13 -17 18 -17 5 -1 8 -6 6 -12 -2 -5 0 -7 3
-3 10 10 47 -11 40 -22 -3 -5 0 -12 6 -16 8 -4 9 -3 5 4 -12 19 11 14 48 -12
28 -18 32 -26 23 -37 -10 -11 -9 -11 4 -1 17 13 49 7 49 -9 0 -5 7 -9 16 -9 9
0 12 -5 8 -11 -4 -7 -1 -10 7 -7 19 6 149 -59 172 -86 10 -11 16 -15 12 -8 -3
6 -1 12 4 12 6 0 11 -4 11 -10 0 -5 7 -7 15 -4 10 4 15 0 15 -12 0 -12 3 -15
8 -8 5 9 18 7 47 -6 22 -10 55 -24 73 -31 17 -8 32 -17 32 -21 0 -3 8 -5 18
-3 9 1 27 -4 40 -11 12 -8 22 -12 22 -8 0 3 12 -1 26 -11 18 -11 24 -12 18 -4
-6 11 -5 12 7 3 15 -12 46 -22 94 -30 17 -3 38 -15 48 -27 10 -13 15 -15 12
-6 -5 13 0 15 25 11 16 -2 30 -8 30 -12 0 -4 12 -7 28 -8 25 -1 40 -4 95 -18
12 -3 36 -7 52 -10 29 -4 65 -11 75 -14 3 -1 20 -2 38 -2 19 0 32 -6 32 -14 0
-7 4 -15 9 -18 5 -4 7 4 4 16 -3 13 -1 19 4 13 4 -6 22 -11 38 -11 73 -2 121
-9 127 -19 5 -6 8 -5 8 3 0 7 5 10 11 6 6 -3 57 -7 112 -7 61 0 105 -5 109
-11 6 -8 8 -8 8 0 0 6 12 10 28 9 15 -1 32 2 39 7 7 6 15 3 22 -9 10 -17 10
-17 11 1 0 20 0 20 16 0 8 -10 13 -13 9 -7 -3 7 0 13 7 14 7 0 29 2 48 4 19 2
65 6 102 9 37 2 71 7 77 11 6 3 11 1 11 -4 0 -6 5 -11 11 -11 5 0 7 5 4 10 -3
6 2 10 12 10 10 0 29 3 43 6 24 6 24 6 6 -8 -15 -12 -16 -17 -6 -23 8 -5 11
-4 7 2 -3 5 7 17 24 27 22 13 29 14 29 4 0 -10 3 -9 9 1 6 9 25 15 45 15 20 0
36 3 36 7 0 5 9 6 20 4 11 -2 20 0 20 4 0 4 24 12 53 18 28 6 61 13 72 18 16
5 17 5 5 -4 -24 -17 -2 -13 25 5 14 9 25 13 25 9 0 -4 8 -1 17 6 14 12 16 12
9 -1 -4 -8 0 -6 8 4 9 11 19 17 22 13 4 -4 13 -2 20 4 16 13 37 2 28 -13 -4
-7 -2 -8 4 -4 6 4 9 13 5 21 -4 11 -1 13 13 8 12 -4 15 -3 10 5 -5 8 -2 10 8
6 9 -3 16 -2 16 3 0 5 7 10 15 11 8 1 22 3 30 4 8 1 15 5 15 10 0 5 5 6 10 3
6 -3 10 -2 10 3 0 5 11 12 25 14 16 3 22 1 19 -6 -3 -6 0 -4 8 4 14 16 50 35
86 45 12 4 22 11 22 16 0 6 4 8 9 4 5 -3 12 -1 16 5 4 6 11 8 16 5 5 -4 9 -1
9 5 0 6 4 9 9 5 5 -3 12 -1 15 4 3 5 24 18 46 30 32 16 40 18 40 6 0 -7 4 -16
9 -19 4 -3 6 6 3 21 -3 17 -1 24 6 19 6 -3 15 2 21 11 9 16 12 16 21 3 9 -13
10 -13 10 0 0 8 9 21 21 28 17 11 20 11 14 0 -5 -7 2 -4 13 7 47 44 116 88
125 78 4 -3 7 -1 7 6 0 7 4 10 9 6 5 -3 12 4 16 15 3 11 10 20 15 20 5 0 26
11 46 25 20 14 41 22 46 18 6 -3 9 0 6 8 -5 16 31 47 61 52 11 2 24 7 28 12 5
4 2 5 -4 1 -7 -4 -13 -4 -13 -1 0 8 37 39 93 78 22 15 37 27 32 27 -4 0 -2 7
5 15 7 8 16 12 21 9 5 -3 9 2 9 10 0 9 4 16 9 16 4 0 33 25 64 56 31 31 60 53
66 50 5 -4 13 -1 17 5 4 8 3 9 -4 5 -18 -11 -14 10 4 29 9 9 23 14 30 11 8 -3
14 -1 14 4 0 6 -4 10 -10 10 -5 0 2 11 16 26 25 24 27 24 41 7 13 -17 13 -16
4 4 -14 28 -14 36 1 27 8 -5 9 -2 5 10 -5 13 -3 17 7 13 15 -6 40 16 30 26 -9
9 16 47 31 47 8 0 14 3 13 8 -3 16 15 40 27 36 10 -4 12 1 8 15 -4 15 -1 21
11 21 10 0 14 5 11 10 -3 6 -1 10 6 10 7 0 10 3 6 6 -5 5 61 106 97 146 9 10
17 21 18 25 2 5 7 7 11 5 5 -1 7 3 5 10 -3 7 2 19 11 26 13 11 13 12 1 6 -12
-6 -11 -3 2 12 9 10 21 31 27 46 7 19 15 26 26 22 8 -4 17 1 21 10 3 9 11 13
17 9 6 -4 7 -1 2 7 -6 10 -11 9 -21 -5 -21 -28 -26 -12 -8 23 9 20 20 29 27
25 8 -4 8 -1 -1 9 -10 13 -10 17 3 22 10 3 13 11 9 18 -4 7 3 4 17 -7 13 -11
18 -13 11 -4 -6 9 -9 19 -5 22 3 4 1 7 -5 7 -6 0 -9 7 -6 15 6 14 8 13 19 -1
9 -14 14 -14 20 -4 5 8 4 11 -3 6 -21 -13 -18 30 7 84 29 67 27 64 43 54 19
-12 46 -15 52 -5 3 4 -5 7 -19 6 -34 -4 -43 14 -29 55 10 29 13 32 17 15 3
-11 5 -4 4 15 -1 21 2 34 9 33 6 -1 11 6 11 15 0 40 4 49 28 62 14 7 23 15 20
18 -2 3 -12 -1 -21 -9 -15 -12 -16 -11 -9 11 4 14 11 27 14 30 4 3 8 16 8 28
1 13 10 31 20 39 10 8 12 12 5 8 -10 -5 -11 0 -6 22 4 15 11 29 16 31 4 2 5
15 2 28 -4 15 -2 24 6 24 6 0 8 -6 4 -12 -4 -8 -3 -10 2 -5 12 12 12 30 -1 39
-6 5 -3 8 7 8 9 0 19 4 22 9 4 5 -4 7 -16 4 -13 -3 -19 -1 -13 4 11 9 14 20
17 58 2 25 18 36 18 13 0 -6 3 -9 6 -5 3 3 2 12 -2 19 -13 20 -15 48 -4 48 5
0 8 10 6 23 -1 12 1 36 5 52 4 17 10 52 14 79 3 28 11 53 18 58 9 6 9 8 0 8
-7 0 -12 11 -11 24 2 17 6 22 13 16 7 -6 11 -2 11 10 0 10 -3 17 -7 14 -4 -2
-7 23 -6 56 1 33 5 60 9 60 4 0 4 8 1 18 -5 13 -4 15 8 7 8 -5 6 -2 -4 8 -11
9 -15 17 -9 17 5 0 8 11 7 25 -2 13 3 29 11 36 8 6 14 16 14 22 0 6 -7 2 -15
-9 -15 -19 -16 -19 -13 1 2 11 12 27 22 36 16 13 17 16 3 16 -9 0 -14 -4 -11
-9 3 -4 0 -8 -5 -8 -15 0 -14 33 2 49 7 8 7 11 1 8 -8 -5 -11 5 -10 31 2 20
-1 45 -6 54 -6 12 -2 24 12 38 18 18 18 21 4 18 -13 -2 -18 6 -20 35 -2 21 0
35 6 32 5 -3 12 0 16 6 4 8 3 9 -5 5 -6 -4 -14 0 -18 9 -3 10 0 21 8 26 11 7
10 9 -5 9 -16 0 -17 2 -5 17 10 11 10 14 2 9 -7 -4 -13 -2 -13 3 0 6 6 11 13
11 8 0 7 3 -3 10 -18 11 -20 30 -6 49 9 12 8 13 -3 7 -9 -6 -12 -5 -9 5 3 8
11 13 18 11 11 -3 11 0 1 12 -7 8 -9 21 -5 28 6 10 4 10 -9 0 -14 -12 -16 -11
-15 5 0 25 -9 84 -17 106 -4 9 -2 24 5 32 11 13 10 14 -2 10 -11 -4 -15 0 -15
17 0 13 -2 30 -6 38 -17 43 -37 132 -32 140 3 6 2 10 -3 10 -6 0 -13 17 -17
38 -4 20 -11 42 -16 48 -5 7 -9 16 -8 20 1 5 -3 22 -9 37 -7 16 -12 34 -12 42
0 8 -4 17 -10 20 -5 3 -10 17 -10 31 0 13 -4 24 -10 24 -5 0 -10 9 -10 19 0
11 -5 23 -11 26 -6 4 -8 13 -5 21 3 8 1 14 -5 14 -6 0 -8 7 -5 16 3 8 2 12 -4
9 -6 -3 -10 1 -10 9 0 28 -1 31 -15 38 -19 11 -29 59 -13 70 10 7 9 9 -4 5
-12 -4 -22 5 -36 33 -13 26 -15 41 -8 44 6 2 4 5 -5 5 -10 1 -30 28 -50 69
-18 37 -39 73 -47 81 -10 10 -10 16 -1 27 9 11 9 13 -2 9 -10 -4 -32 21 -69
77 -29 46 -54 85 -54 88 -1 2 -13 16 -28 31 -16 14 -28 31 -28 37 0 6 -6 13
-12 15 -10 4 -9 8 2 17 13 10 13 11 -2 7 -10 -4 -24 5 -39 25 -30 39 -62 75
-99 114 -17 17 -30 36 -30 43 0 6 -7 11 -15 11 -18 0 -19 11 -2 30 10 12 9 12
-4 2 -13 -10 -19 -9 -28 1 -6 8 -7 18 -3 22 4 5 2 5 -4 2 -14 -8 -47 26 -37
38 5 4 3 5 -4 2 -6 -4 -20 4 -31 18 -11 13 -22 21 -26 18 -3 -3 -6 1 -6 10 0
9 -5 17 -12 17 -6 0 -28 18 -49 40 -21 22 -41 40 -43 40 -5 0 -16 8 -69 53
-12 10 -43 35 -69 55 -27 20 -48 40 -48 45 0 4 -4 6 -10 2 -5 -3 -18 3 -29 14
-11 11 -34 27 -51 36 -18 9 -28 21 -24 27 5 7 2 8 -6 3 -8 -5 -18 -1 -27 11
-8 10 -15 17 -16 14 -1 -2 -28 11 -60 29 -31 18 -55 37 -52 42 4 5 0 6 -8 3
-15 -5 -81 29 -72 37 2 3 -5 6 -17 6 -12 1 -24 7 -28 13 -4 7 -10 11 -14 10
-13 -3 -105 43 -101 50 3 4 -1 8 -8 7 -34 -1 -48 4 -41 15 4 6 3 8 -4 4 -10
-6 -90 20 -102 33 -3 3 -14 8 -25 9 -11 2 -23 9 -27 15 -4 7 -8 8 -8 3 0 -6
-5 -5 -11 1 -6 6 -18 9 -27 6 -11 -5 -13 -3 -7 7 5 8 4 11 -2 7 -6 -4 -35 2
-65 13 -31 11 -70 22 -89 25 -18 3 -36 9 -39 13 -3 4 -12 7 -20 7 -8 -1 -37 5
-65 13 -27 8 -59 16 -70 17 -11 1 -20 3 -20 5 0 2 -29 7 -72 11 -18 2 -33 7
-33 12 0 4 -4 6 -9 3 -4 -3 -35 -1 -67 4 -32 6 -86 13 -119 15 -130 11 -156
15 -167 21 -7 4 -8 3 -4 -4 7 -12 -6 -17 -17 -6 -9 9 -277 11 -277 2 0 -10
-54 -5 -61 6 -4 4 -8 3 -10 -3z m2541 -4925 c0 -3 -4 -8 -10 -11 -5 -3 -10 -1
-10 4 0 6 5 11 10 11 6 0 10 -2 10 -4z"/>
<path d="M5335 5909 c-4 -6 -5 -12 -2 -15 2 -3 7 2 10 11 7 17 1 20 -8 4z"/>
<path d="M5735 5549 c-4 -6 -5 -12 -2 -15 2 -3 7 2 10 11 7 17 1 20 -8 4z"/>
<path d="M5795 5460 c-3 -5 -1 -10 4 -10 6 0 11 5 11 10 0 6 -2 10 -4 10 -3 0
-8 -4 -11 -10z"/>
<path d="M5906 5318 c3 -4 9 -8 15 -8 5 0 9 4 9 8 0 5 -7 9 -15 9 -8 0 -12 -4
-9 -9z"/>
<path d="M5990 5240 c0 -5 5 -10 11 -10 5 0 7 5 4 10 -3 6 -8 10 -11 10 -2 0
-4 -4 -4 -10z"/>
<path d="M6153 4929 c-2 -23 3 -25 10 -4 4 8 3 16 -1 19 -4 3 -9 -4 -9 -15z"/>
<path d="M6190 4877 c0 -2 6 -10 14 -16 11 -9 16 -9 22 1 4 7 4 10 -1 6 -4 -4
-14 -3 -22 3 -7 6 -13 9 -13 6z"/>
<path d="M6235 4771 c-3 -5 -2 -12 3 -15 5 -3 9 1 9 9 0 17 -3 19 -12 6z"/>
<path d="M6296 4647 c3 -10 9 -15 12 -12 3 3 0 11 -7 18 -10 9 -11 8 -5 -6z"/>
<path d="M6335 4640 c-3 -5 -1 -10 4 -10 6 0 11 5 11 10 0 6 -2 10 -4 10 -3 0
-8 -4 -11 -10z"/>
<path d="M6376 4427 c3 -10 9 -15 12 -12 3 3 0 11 -7 18 -10 9 -11 8 -5 -6z"/>
<path d="M6389 4377 c6 -8 9 -16 6 -19 -3 -2 2 -5 10 -5 13 0 13 3 -2 19 -19
21 -31 25 -14 5z"/>
<path d="M6416 4273 c-6 -14 -5 -15 5 -6 7 7 10 15 7 18 -3 3 -9 -2 -12 -12z"/>
<path d="M6420 4226 c0 -2 8 -10 18 -17 15 -13 16 -12 3 4 -13 16 -21 21 -21
13z"/>
<path d="M6456 4093 c-6 -14 -5 -15 5 -6 7 7 10 15 7 18 -3 3 -9 -2 -12 -12z"/>
<path d="M6470 4059 c0 -5 5 -7 10 -4 6 3 10 8 10 11 0 2 -4 4 -10 4 -5 0 -10
-5 -10 -11z"/>
<path d="M6476 3998 c3 -5 10 -6 15 -3 13 9 11 12 -6 12 -8 0 -12 -4 -9 -9z"/>
<path d="M6510 3837 c0 -2 6 -10 14 -16 11 -9 16 -9 22 1 4 7 4 10 -1 6 -4 -4
-14 -3 -22 3 -7 6 -13 9 -13 6z"/>
<path d="M6510 3640 c0 -5 9 -8 20 -7 21 1 18 10 -5 13 -8 1 -15 -2 -15 -6z"/>
<path d="M6533 3595 c0 -8 4 -12 9 -9 4 3 8 9 8 15 0 5 -4 9 -8 9 -5 0 -9 -7
-9 -15z"/>
<path d="M6560 3560 c-9 -6 -10 -10 -3 -10 6 0 15 5 18 10 8 12 4 12 -15 0z"/>
<path d="M6553 3515 c0 -8 4 -12 9 -9 5 3 6 10 3 15 -9 13 -12 11 -12 -6z"/>
<path d="M6555 3480 c-3 -5 -1 -10 4 -10 6 0 11 5 11 10 0 6 -2 10 -4 10 -3 0
-8 -4 -11 -10z"/>
<path d="M6516 3321 c-3 -5 2 -15 12 -22 15 -12 16 -12 5 2 -7 9 -10 19 -6 22
3 4 4 7 0 7 -3 0 -8 -4 -11 -9z"/>
<path d="M6500 3280 c0 -5 5 -10 11 -10 5 0 7 5 4 10 -3 6 -8 10 -11 10 -2 0
-4 -4 -4 -10z"/>
<path d="M6514 3142 c4 -3 14 -7 22 -8 9 -1 13 0 10 4 -4 3 -14 7 -22 8 -9 1
-13 0 -10 -4z"/>
<path d="M6490 3126 c0 -2 7 -7 16 -10 8 -3 12 -2 9 4 -6 10 -25 14 -25 6z"/>
<path d="M6491 3074 c0 -11 3 -14 6 -6 3 7 2 16 -1 19 -3 4 -6 -2 -5 -13z"/>
<path d="M6515 3050 c-4 -6 -10 -8 -14 -6 -4 3 -8 -1 -8 -9 0 -13 4 -12 19 2
18 16 22 23 14 23 -3 0 -8 -5 -11 -10z"/>
<path d="M6475 2941 c-3 -5 -2 -12 3 -15 5 -3 9 1 9 9 0 17 -3 19 -12 6z"/>
<path d="M6480 2860 c-12 -7 -10 -9 7 -7 12 0 19 5 17 9 -6 10 -6 10 -24 -2z"/>
<path d="M6476 2767 c3 -10 9 -15 12 -12 3 3 0 11 -7 18 -10 9 -11 8 -5 -6z"/>
<path d="M6450 2699 c0 -5 5 -7 10 -4 6 3 10 8 10 11 0 2 -4 4 -10 4 -5 0 -10
-5 -10 -11z"/>
<path d="M6390 2610 c-8 -15 -8 -18 3 -14 8 3 14 11 14 19 0 20 -4 19 -17 -5z"/>
<path d="M6406 2578 c3 -5 10 -6 15 -3 13 9 11 12 -6 12 -8 0 -12 -4 -9 -9z"/>
<path d="M6356 2494 c-20 -19 -20 -21 -1 -21 8 0 13 3 10 5 -3 3 0 11 6 19 16
18 4 16 -15 -3z"/>
<path d="M6341 2444 c0 -11 3 -14 6 -6 3 7 2 16 -1 19 -3 4 -6 -2 -5 -13z"/>
<path d="M6399 2433 c-13 -16 -12 -17 4 -4 16 13 21 21 13 21 -2 0 -10 -8 -17
-17z"/>
<path d="M6346 2378 c3 -5 10 -6 15 -3 13 9 11 12 -6 12 -8 0 -12 -4 -9 -9z"/>
<path d="M6255 2279 c-11 -16 -1 -19 13 -3 7 8 8 14 3 14 -5 0 -13 -5 -16 -11z"/>
<path d="M6236 2234 c-8 -20 -8 -24 2 -24 4 0 8 9 9 20 2 24 -3 26 -11 4z"/>
<path d="M6175 2080 c3 -5 8 -10 11 -10 2 0 4 5 4 10 0 6 -5 10 -11 10 -5 0
-7 -4 -4 -10z"/>
<path d="M6170 2001 c0 -6 4 -13 10 -16 6 -3 7 1 4 9 -7 18 -14 21 -14 7z"/>
<path d="M6124 1979 c-3 -6 -2 -15 3 -20 5 -5 9 -1 9 11 0 23 -2 24 -12 9z"/>
<path d="M6094 1935 c-3 -8 -4 -20 -2 -27 3 -7 7 -1 10 15 6 29 1 36 -8 12z"/>
<path d="M6116 1918 c3 -5 10 -6 15 -3 13 9 11 12 -6 12 -8 0 -12 -4 -9 -9z"/>
<path d="M6057 1887 c-3 -8 -2 -20 3 -26 5 -9 8 -4 8 13 0 29 -3 32 -11 13z"/>
<path d="M6034 1862 c3 -5 0 -13 -6 -15 -9 -4 -10 -6 -1 -6 17 -1 25 16 12 25
-7 4 -9 3 -5 -4z"/>
<path d="M6015 1801 c-3 -5 0 -13 6 -17 7 -4 9 -3 5 4 -3 5 0 13 6 15 9 4 10
6 1 6 -6 1 -14 -3 -18 -8z"/>
<path d="M5975 1791 c-3 -5 0 -13 6 -17 7 -4 9 -3 5 4 -3 5 0 13 6 15 9 4 10
6 1 6 -6 1 -14 -3 -18 -8z"/>
<path d="M6056 1782 c-3 -5 1 -9 9 -9 8 0 12 4 9 9 -3 4 -7 8 -9 8 -2 0 -6 -4
-9 -8z"/>
<path d="M5951 1757 c-8 -10 -7 -14 2 -14 8 0 14 6 14 14 0 7 -1 13 -2 13 -2
0 -8 -6 -14 -13z"/>
<path d="M6030 1721 c0 -6 4 -13 10 -16 6 -3 7 1 4 9 -7 18 -14 21 -14 7z"/>
<path d="M5933 1697 c-3 -6 -1 -7 5 -3 6 3 12 -2 14 -11 3 -16 5 -15 10 3 5
22 -17 30 -29 11z"/>
<path d="M5915 1660 c-3 -5 -1 -10 4 -10 6 0 11 5 11 10 0 6 -2 10 -4 10 -3 0
-8 -4 -11 -10z"/>
<path d="M5870 1609 c0 -5 5 -7 10 -4 6 3 10 8 10 11 0 2 -4 4 -10 4 -5 0 -10
-5 -10 -11z"/>
<path d="M5830 1596 c0 -2 9 -6 20 -9 11 -3 18 -1 14 4 -5 9 -34 13 -34 5z"/>
<path d="M5835 1559 c-3 -4 2 -6 10 -5 21 3 28 13 10 13 -9 0 -18 -4 -20 -8z"/>
<path d="M5745 1479 c-11 -16 -1 -19 13 -3 7 8 8 14 3 14 -5 0 -13 -5 -16 -11z"/>
<path d="M5695 1440 c-3 -5 -1 -10 4 -10 6 0 11 5 11 10 0 6 -2 10 -4 10 -3 0
-8 -4 -11 -10z"/>
<path d="M1280 1420 c-8 -5 -10 -10 -5 -10 6 0 17 5 25 10 8 5 11 10 5 10 -5
0 -17 -5 -25 -10z"/>
<path d="M5702 1404 c-7 -8 -8 -14 -3 -14 10 0 25 19 20 25 -2 1 -10 -3 -17
-11z"/>
<path d="M5670 1383 c0 -6 8 -17 18 -24 16 -13 16 -13 2 6 -8 11 -16 22 -17
24 -2 2 -3 0 -3 -6z"/>
<path d="M5640 1360 c8 -5 20 -10 25 -10 6 0 3 5 -5 10 -8 5 -19 10 -25 10 -5
0 -3 -5 5 -10z"/>
<path d="M1370 1346 c0 -2 7 -7 16 -10 8 -3 12 -2 9 4 -6 10 -25 14 -25 6z"/>
<path d="M5606 1338 c3 -5 10 -6 15 -3 13 9 11 12 -6 12 -8 0 -12 -4 -9 -9z"/>
<path d="M5625 1320 c-3 -6 1 -7 9 -4 18 7 21 14 7 14 -6 0 -13 -4 -16 -10z"/>
<path d="M5590 1309 c0 -5 5 -7 10 -4 6 3 10 8 10 11 0 2 -4 4 -10 4 -5 0 -10
-5 -10 -11z"/>
<path d="M5548 1283 c7 -3 16 -2 19 1 4 3 -2 6 -13 5 -11 0 -14 -3 -6 -6z"/>
<path d="M5531 1252 c-8 -15 -6 -18 14 -18 14 0 22 2 20 5 -3 2 1 11 7 20 7 9
2 7 -11 -4 -21 -17 -24 -18 -18 -2 8 22 0 22 -12 -1z"/>
<path d="M1496 1215 c-9 -26 -7 -32 5 -12 6 10 9 21 6 23 -2 3 -7 -2 -11 -11z"/>
<path d="M5460 1206 c0 -2 7 -6 15 -10 8 -3 15 -1 15 4 0 6 -7 10 -15 10 -8 0
-15 -2 -15 -4z"/>
<path d="M5430 1180 c0 -5 5 -10 10 -10 6 0 10 5 10 10 0 6 -4 10 -10 10 -5 0
-10 -4 -10 -10z"/>
<path d="M5400 1160 c0 -6 4 -9 9 -6 5 4 12 1 14 -4 3 -6 4 -5 3 2 -3 15 -26
23 -26 8z"/>
<path d="M5390 1126 c0 -2 9 -6 20 -9 11 -3 18 -1 14 4 -5 9 -34 13 -34 5z"/>
<path d="M5320 1105 c-7 -9 -8 -15 -2 -15 5 0 12 7 16 15 3 8 4 15 2 15 -2 0
-9 -7 -16 -15z"/>
<path d="M5357 1109 c7 -7 15 -10 18 -7 3 3 -2 9 -12 12 -14 6 -15 5 -6 -5z"/>
<path d="M1696 1067 c3 -10 9 -15 12 -12 3 3 0 11 -7 18 -10 9 -11 8 -5 -6z"/>
<path d="M5340 1060 c-8 -5 -10 -10 -5 -10 6 0 17 5 25 10 8 5 11 10 5 10 -5
0 -17 -5 -25 -10z"/>
<path d="M1750 1040 c0 -5 5 -10 11 -10 5 0 7 5 4 10 -3 6 -8 10 -11 10 -2 0
-4 -4 -4 -10z"/>
<path d="M5246 1037 c3 -10 9 -15 12 -12 3 3 0 11 -7 18 -10 9 -11 8 -5 -6z"/>
<path d="M5208 1003 c6 -2 9 -10 6 -15 -4 -7 -2 -8 5 -4 13 9 5 26 -12 25 -9
0 -8 -2 1 -6z"/>
<path d="M5193 972 c0 -12 5 -22 9 -22 11 0 10 12 -2 30 -7 12 -9 10 -7 -8z"/>
<path d="M5120 960 c-12 -7 -10 -9 8 -7 12 0 22 5 22 9 0 11 -12 10 -30 -2z"/>
<path d="M5080 930 c-7 -14 -7 -20 0 -20 5 0 10 7 10 16 0 9 5 12 12 8 7 -4 8
-3 4 4 -10 16 -14 15 -26 -8z"/>
<path d="M5106 902 c-2 -4 4 -8 14 -8 10 0 16 4 14 8 -3 4 -9 8 -14 8 -5 0
-11 -4 -14 -8z"/>
<path d="M5020 880 c-9 -6 -10 -10 -3 -10 6 0 15 5 18 10 8 12 4 12 -15 0z"/>
<path d="M5080 840 c-9 -6 -10 -10 -3 -10 6 0 15 5 18 10 8 12 4 12 -15 0z"/>
<path d="M4867 806 c-4 -10 -1 -13 8 -9 8 3 12 9 9 14 -7 12 -11 11 -17 -5z"/>
<path d="M4830 781 c0 -5 8 -15 18 -22 15 -12 16 -12 5 2 -7 9 -10 19 -6 22 3
4 1 7 -5 7 -7 0 -12 -4 -12 -9z"/>
<path d="M4880 780 c-9 -6 -10 -10 -3 -10 6 0 15 5 18 10 8 12 4 12 -15 0z"/>
<path d="M2196 762 c-3 -5 1 -9 9 -9 8 0 12 4 9 9 -3 4 -7 8 -9 8 -2 0 -6 -4
-9 -8z"/>
<path d="M4775 761 c-3 -5 0 -13 6 -17 8 -5 9 -3 4 6 -6 10 -4 12 9 7 10 -4
15 -3 11 3 -8 13 -22 13 -30 1z"/>
<path d="M4750 744 c0 -20 27 -37 36 -23 4 7 3 9 -4 5 -6 -3 -15 2 -21 11 -6
10 -11 13 -11 7z"/>
<path d="M4680 726 c0 -2 7 -9 15 -16 13 -11 14 -10 9 4 -5 14 -24 23 -24 12z"/>
<path d="M4796 713 c-6 -14 -5 -15 5 -6 7 7 10 15 7 18 -3 3 -9 -2 -12 -12z"/>
<path d="M4654 699 c-4 -7 -3 -9 4 -5 5 3 13 0 15 -6 4 -9 6 -10 6 -1 1 17
-16 25 -25 12z"/>
<path d="M4535 659 c-4 -6 -5 -12 -2 -15 2 -3 7 2 10 11 7 17 1 20 -8 4z"/>
<path d="M4690 666 c0 -2 7 -7 16 -10 8 -3 12 -2 9 4 -6 10 -25 14 -25 6z"/>
<path d="M2453 645 c0 -8 4 -12 9 -9 5 3 6 10 3 15 -9 13 -12 11 -12 -6z"/>
<path d="M4575 650 c-4 -6 -10 -8 -14 -6 -4 3 -8 -1 -8 -9 0 -13 4 -12 19 2
18 16 22 23 14 23 -3 0 -8 -5 -11 -10z"/>
<path d="M4495 640 c-3 -5 -1 -10 4 -10 6 0 11 5 11 10 0 6 -2 10 -4 10 -3 0
-8 -4 -11 -10z"/>
<path d="M4426 623 c-6 -14 -5 -15 5 -6 7 7 10 15 7 18 -3 3 -9 -2 -12 -12z"/>
<path d="M2495 620 c-3 -5 -1 -10 4 -10 6 0 11 5 11 10 0 6 -2 10 -4 10 -3 0
-8 -4 -11 -10z"/>
<path d="M2573 605 c0 -8 4 -12 9 -9 5 3 6 10 3 15 -9 13 -12 11 -12 -6z"/>
<path d="M2613 590 c1 -21 10 -18 13 5 1 8 -2 15 -6 15 -5 0 -8 -9 -7 -20z"/>
<path d="M4390 599 c0 -5 5 -7 10 -4 6 3 10 8 10 11 0 2 -4 4 -10 4 -5 0 -10
-5 -10 -11z"/>
<path d="M4470 606 c0 -2 7 -7 16 -10 8 -3 12 -2 9 4 -6 10 -25 14 -25 6z"/>
<path d="M4230 571 c0 -7 -4 -10 -8 -7 -5 3 -9 -2 -9 -10 0 -13 2 -13 16 0 8
9 12 19 8 22 -4 4 -7 2 -7 -5z"/>
<path d="M4270 565 c0 -8 4 -15 8 -15 5 0 9 7 9 15 0 8 -4 15 -9 15 -4 0 -8
-7 -8 -15z"/>
<path d="M4373 565 c0 -8 4 -12 9 -9 5 3 6 10 3 15 -9 13 -12 11 -12 -6z"/>
<path d="M4310 556 c0 -2 8 -10 18 -17 15 -13 16 -12 3 4 -13 16 -21 21 -21
13z"/>
<path d="M2735 540 c-3 -5 -1 -10 4 -10 6 0 11 5 11 10 0 6 -2 10 -4 10 -3 0
-8 -4 -11 -10z"/>
<path d="M2860 546 c0 -2 9 -6 20 -9 11 -3 18 -1 14 4 -5 9 -34 13 -34 5z"/>
<path d="M4094 542 c3 -5 1 -12 -6 -14 -8 -3 -9 -6 -1 -11 6 -4 13 0 17 8 3 8
0 17 -6 21 -6 4 -8 3 -4 -4z"/>
<path d="M4136 541 c-3 -5 1 -14 9 -21 8 -7 12 -17 8 -23 -4 -6 -1 -7 6 -3 9
6 9 12 -3 25 -9 10 -13 21 -9 24 3 4 4 7 0 7 -3 0 -8 -4 -11 -9z"/>
<path d="M2950 520 c0 -5 5 -10 11 -10 5 0 7 5 4 10 -3 6 -8 10 -11 10 -2 0
-4 -4 -4 -10z"/>
<path d="M3054 508 c-4 -7 -3 -8 5 -4 6 4 20 2 29 -6 15 -12 16 -11 3 5 -16
20 -27 22 -37 5z"/>
<path d="M3766 491 c-19 -7 -19 -8 0 -13 13 -3 21 0 21 8 0 8 -1 14 -1 13 -1
0 -10 -4 -20 -8z"/>
<path d="M2955 480 c-3 -5 -1 -10 4 -10 6 0 11 5 11 10 0 6 -2 10 -4 10 -3 0
-8 -4 -11 -10z"/>
<path d="M3159 473 c-13 -16 -12 -17 4 -4 16 13 21 21 13 21 -2 0 -10 -8 -17
-17z"/>
<path d="M3314 475 c3 -23 12 -26 13 -5 1 11 -2 20 -7 20 -4 0 -7 -7 -6 -15z"/>
<path d="M3513 472 c2 -12 6 -24 10 -28 3 -4 4 4 2 16 -6 30 -16 40 -12 12z"/>
<path d="M3713 471 c0 -11 5 -18 9 -15 4 3 5 11 1 19 -7 21 -12 19 -10 -4z"/>
<path d="M3110 466 c0 -2 7 -7 16 -10 8 -3 12 -2 9 4 -6 10 -25 14 -25 6z"/>
<path d="M3466 458 c3 -4 9 -8 15 -8 5 0 9 4 9 8 0 5 -7 9 -15 9 -8 0 -12 -4
-9 -9z"/>
<path d="M3546 458 c3 -4 11 -5 19 -1 21 7 19 12 -4 10 -11 0 -18 -5 -15 -9z"/>
<path d="M3815 460 c3 -5 8 -10 11 -10 2 0 4 5 4 10 0 6 -5 10 -11 10 -5 0 -7
-4 -4 -10z"/>
<path d="M3236 433 c-6 -14 -5 -15 5 -6 7 7 10 15 7 18 -3 3 -9 -2 -12 -12z"/>
<path d="M3635 440 c3 -5 8 -10 11 -10 2 0 4 5 4 10 0 6 -5 10 -11 10 -5 0 -7
-4 -4 -10z"/>
</g>
</svg>
